<mxfile host="diagram-viewer.giteeusercontent.com" modified="2022-11-20T07:20:00.300Z" agent="5.0 (Windows NT 10.0; Win64; x64) AppleWebKit/537.36 (KHTML, like Gecko) Chrome/109.0.0.0 Safari/537.36" version="${version}" etag="IqZ-vIPGPYFwhQL33kBo" pages="2">
  <diagram id="0" name="第 1 页">
    <mxGraphModel dx="855" dy="511" grid="1" gridSize="10" guides="1" tooltips="1" connect="1" arrows="1" fold="1" page="1" pageScale="1" pageWidth="827" pageHeight="1169" math="0" shadow="0">
      <root>
        <mxCell id="0" />
        <mxCell id="1" parent="0" />
        <mxCell id="6PifnIPa-t4-6GvL2zHf-17" value="计算机基础" style="rounded=0;whiteSpace=wrap;html=1;" vertex="1" parent="1">
          <mxGeometry x="100" y="710" width="120" height="60" as="geometry" />
        </mxCell>
        <mxCell id="6PifnIPa-t4-6GvL2zHf-18" value="网络" style="rounded=0;whiteSpace=wrap;html=1;" vertex="1" parent="1">
          <mxGeometry x="100" y="780" width="120" height="60" as="geometry" />
        </mxCell>
        <mxCell id="6PifnIPa-t4-6GvL2zHf-19" value="操作系统" style="rounded=0;whiteSpace=wrap;html=1;" vertex="1" parent="1">
          <mxGeometry x="100" y="850" width="120" height="60" as="geometry" />
        </mxCell>
        <mxCell id="6PifnIPa-t4-6GvL2zHf-20" value="数据结构与算法" style="rounded=0;whiteSpace=wrap;html=1;" vertex="1" parent="1">
          <mxGeometry x="100" y="920" width="120" height="60" as="geometry" />
        </mxCell>
      </root>
    </mxGraphModel>
  </diagram>
  <diagram id="VDpDP4Txcln1U22-15g4">
    <mxGraphModel />
  </diagram>
</mxfile>
